            <svg
              class="fill-stroke text-gray-800 dark:text-white"
              width="44"
              height="20"
              viewBox="0 0 44 20"
              fill="none"
              xmlns="http://www.w3.org/2000/svg"
            >
              <path
                d="M4.512 16.768C4.512 17.424 4.648 17.88 4.92 18.136C5.192 18.376 5.664 18.496 6.336 18.496V19C4.864 18.936 3.896 18.904 3.432 18.904C2.968 18.904 2 18.936 0.528 19V18.496C1.2 18.496 1.672 18.376 1.944 18.136C2.216 17.88 2.352 17.424 2.352 16.768V3.064C2.352 2.328 2.216 1.792 1.944 1.456C1.672 1.12 1.2 0.951999 0.528 0.951999V0.447999C1.024 0.495999 1.52 0.519999 2.016 0.519999C3.024 0.519999 3.856 0.407999 4.512 0.183999V16.768ZM18.4592 16.408C18.4592 17.144 18.5952 17.68 18.8672 18.016C19.1392 18.352 19.6112 18.52 20.2832 18.52V19.024C19.7872 18.976 19.2912 18.952 18.7952 18.952C17.7872 18.952 16.9552 19.064 16.2992 19.288V16.456C15.9152 17.448 15.3712 18.176 14.6672 18.64C13.9632 19.104 13.1952 19.336 12.3632 19.336C11.2752 19.336 10.4432 19.032 9.86719 18.424C9.57919 18.104 9.37119 17.696 9.24319 17.2C9.13119 16.704 9.07519 16.064 9.07519 15.28V9.256C9.07519 8.52 8.93919 7.984 8.66719 7.648C8.39519 7.312 7.92319 7.144 7.25119 7.144V6.64C7.74719 6.688 8.24319 6.712 8.73919 6.712C9.74719 6.712 10.5792 6.6 11.2352 6.376V15.808C11.2352 16.416 11.2672 16.912 11.3312 17.296C11.4112 17.664 11.5792 17.968 11.8352 18.208C12.1072 18.448 12.5152 18.568 13.0592 18.568C13.6672 18.568 14.2192 18.376 14.7152 17.992C15.2112 17.608 15.5952 17.088 15.8672 16.432C16.1552 15.76 16.2992 15.024 16.2992 14.224V9.256C16.2992 8.52 16.1632 7.984 15.8912 7.648C15.6192 7.312 15.1472 7.144 14.4752 7.144V6.64C14.9712 6.688 15.4672 6.712 15.9632 6.712C16.9712 6.712 17.8032 6.6 18.4592 6.376V16.408ZM31.4685 17.296C31.7565 17.696 31.9965 17.984 32.1885 18.16C32.3965 18.32 32.6525 18.432 32.9565 18.496V19C32.1245 18.936 31.5565 18.904 31.2525 18.904C30.7085 18.904 29.7645 18.936 28.4205 19V18.496C28.6765 18.496 28.8925 18.448 29.0685 18.352C29.2605 18.256 29.3565 18.128 29.3565 17.968C29.3565 17.856 29.3245 17.76 29.2605 17.68L26.5245 13.696L24.7725 15.976C24.3245 16.568 24.1005 17.048 24.1005 17.416C24.1005 17.752 24.2525 18.016 24.5565 18.208C24.8765 18.384 25.3165 18.488 25.8765 18.52V19C25.0445 18.952 24.1325 18.928 23.1405 18.928C22.4365 18.928 21.8285 18.952 21.3165 19V18.52C21.6365 18.488 21.9565 18.344 22.2765 18.088C22.6125 17.832 22.9965 17.416 23.4285 16.84L26.1885 13.216L22.8525 8.344C22.5325 7.88 22.2765 7.576 22.0845 7.432C21.8925 7.272 21.6525 7.176 21.3645 7.144V6.64C22.1965 6.704 22.7645 6.736 23.0685 6.736C23.6125 6.736 24.5565 6.704 25.9005 6.64V7.144C25.6445 7.144 25.4205 7.192 25.2285 7.288C25.0525 7.384 24.9645 7.512 24.9645 7.672C24.9645 7.784 24.9965 7.88 25.0605 7.96L27.6285 11.704L29.2845 9.376C29.7645 8.688 30.0045 8.184 30.0045 7.864C30.0045 7.64 29.8925 7.472 29.6685 7.36C29.4605 7.232 29.1165 7.152 28.6365 7.12V6.64C29.4685 6.688 30.1405 6.712 30.6525 6.712C31.3565 6.712 31.9645 6.688 32.4765 6.64V7.12C31.8205 7.2 31.1165 7.76 30.3645 8.8L27.9405 12.16L31.4685 17.296ZM43.9714 16.12C43.6834 17 43.1394 17.76 42.3394 18.4C41.5554 19.024 40.6034 19.336 39.4834 19.336C38.3474 19.336 37.3634 19.08 36.5314 18.568C35.6994 18.04 35.0594 17.312 34.6114 16.384C34.1794 15.44 33.9634 14.352 33.9634 13.12C33.9634 11.728 34.1874 10.52 34.6354 9.496C35.0834 8.472 35.7154 7.688 36.5314 7.144C37.3474 6.584 38.2994 6.304 39.3874 6.304C40.8274 6.304 41.9314 6.744 42.6994 7.624C43.4834 8.488 43.8754 9.808 43.8754 11.584H36.3634C36.3154 12.032 36.2914 12.544 36.2914 13.12C36.2914 14.176 36.4594 15.096 36.7954 15.88C37.1474 16.664 37.6034 17.272 38.1634 17.704C38.7394 18.12 39.3394 18.328 39.9634 18.328C40.7314 18.328 41.4114 18.144 42.0034 17.776C42.5954 17.408 43.0914 16.792 43.4914 15.928L43.9714 16.12ZM39.2914 6.76C38.5394 6.76 37.8914 7.128 37.3474 7.864C36.8034 8.6 36.4674 9.688 36.3394 11.128H41.5714C41.6034 9.88 41.4194 8.84 41.0194 8.008C40.6354 7.176 40.0594 6.76 39.2914 6.76Z"
                fill="currentColor"
              />
            </svg>